<svg width="960" height="720" xmlns="http://www.w3.org/2000/svg" xmlns:xlink="http://www.w3.org/1999/xlink" overflow="hidden"><defs><clipPath id="clip0"><rect x="0" y="0" width="960" height="720"/></clipPath><clipPath id="clip1"><rect x="51" y="20" width="453" height="340"/></clipPath><clipPath id="clip2"><rect x="51" y="20" width="454" height="340"/></clipPath><clipPath id="clip3"><rect x="51" y="20" width="454" height="340"/></clipPath><clipPath id="clip4"><rect x="107" y="60" width="352" height="263"/></clipPath><clipPath id="clip5"><rect x="107" y="60" width="352" height="263"/></clipPath><clipPath id="clip6"><rect x="476" y="23" width="433" height="340"/></clipPath><clipPath id="clip7"><rect x="476" y="23" width="434" height="340"/></clipPath><clipPath id="clip8"><rect x="455" y="23" width="455" height="340"/></clipPath><clipPath id="clip9"><rect x="512" y="63" width="352" height="263"/></clipPath><clipPath id="clip10"><rect x="512" y="63" width="352" height="263"/></clipPath><clipPath id="clip11"><rect x="61" y="357" width="453" height="340"/></clipPath><clipPath id="clip12"><rect x="61" y="357" width="453" height="340"/></clipPath><clipPath id="clip13"><rect x="61" y="357" width="453" height="340"/></clipPath><clipPath id="clip14"><rect x="117" y="397" width="352" height="263"/></clipPath><clipPath id="clip15"><rect x="117" y="397" width="352" height="263"/></clipPath><clipPath id="clip16"><rect x="480" y="357" width="432" height="340"/></clipPath><clipPath id="clip17"><rect x="480" y="357" width="432" height="340"/></clipPath><clipPath id="clip18"><rect x="459" y="357" width="453" height="340"/></clipPath><clipPath id="clip19"><rect x="515" y="397" width="352" height="263"/></clipPath><clipPath id="clip20"><rect x="515" y="397" width="352" height="263"/></clipPath></defs><g clip-path="url(#clip0)"><rect x="0" y="0" width="960" height="720" fill="#FFFFFF"/><g clip-path="url(#clip1)"><g clip-path="url(#clip2)"><g clip-path="url(#clip3)"><path d="M0 339.631 452.842 339.631 452.842 0 0 0Z" fill="#FFFFFF" transform="matrix(1.00035 0 0 1 51 20.1844)"/><path d="M56.6052 302.272 407.557 302.272 407.557 40.7557 56.6052 40.7557Z" fill="#FFFFFF" transform="matrix(1.00035 0 0 1 51 20.1844)"/><path d="M0 0 0-3.43955" stroke="#000000" stroke-width="0.786183" stroke-linejoin="round" fill="none" transform="matrix(1.00035 0 0 1 123.583 322.456)"/><path d="M6.24647 13.0519C5.2494 13.0519 4.49906 12.5605 3.99541 11.5778 3.49382 10.5971 3.24301 9.12096 3.24301 7.14936 3.24301 5.18595 3.49382 3.71287 3.99541 2.73014 4.49906 1.74742 5.2494 1.25605 6.24647 1.25605 7.25171 1.25605 8.00516 1.74742 8.50675 2.73014 9.0104 3.71287 9.26222 5.18595 9.26222 7.14936 9.26222 9.12096 9.0104 10.5971 8.50675 11.5778 8.00516 12.5605 7.25171 13.0519 6.24647 13.0519ZM6.24647 14.5874C7.85363 14.5874 9.08103 13.9517 9.92864 12.6803 10.7762 11.4109 11.2 9.56727 11.2 7.14936 11.2 4.73758 10.7762 2.89598 9.92864 1.62457 9.08103 0.355217 7.85363-0.279464 6.24647-0.279464 4.64134-0.279464 3.41498 0.355217 2.56738 1.62457 1.71978 2.89598 1.29597 4.73758 1.29597 7.14936 1.29597 9.56727 1.71978 11.4109 2.56738 12.6803 3.41498 13.9517 4.64134 14.5874 6.24647 14.5874Z" transform="matrix(1.00035 0 0 -1 117.328 340.83)"/><path d="M0 0 0-3.43955" stroke="#000000" stroke-width="0.786183" stroke-linejoin="round" fill="none" transform="matrix(1.00035 0 0 1 230.683 322.456)"/><path d="M2.12208 14.3294 9.73209 14.3294 9.73209 12.6956 3.89714 12.6956 3.89714 9.18545C4.17761 9.28166 4.45812 9.35334 4.7386 9.40042 5.02113 9.4475 5.30367 9.47105 5.5862 9.47105 7.18519 9.47105 8.45147 9.03291 9.38506 8.15665 10.3207 7.2804 10.7885 6.09394 10.7885 4.59733 10.7885 3.05567 10.3084 1.85695 9.34821 1.00116 8.38799 0.147409 7.03471-0.279464 5.28831-0.279464 4.68639-0.279464 4.0732-0.22828 3.44877-0.125912 2.82637-0.0235446 2.18248 0.130007 1.51709 0.334742L1.51709 2.28485C2.09239 1.9716 2.68715 1.7382 3.30136 1.58465 3.91556 1.4311 4.56456 1.35432 5.24839 1.35432 6.35602 1.35432 7.23227 1.64505 7.87719 2.2265 8.52416 2.80794 8.84763 3.59823 8.84763 4.59733 8.84763 5.5944 8.52416 6.38366 7.87719 6.96509 7.23227 7.54859 6.35602 7.84034 5.24839 7.84034 4.7304 7.84034 4.21345 7.783 3.69752 7.66836 3.18364 7.55372 2.65849 7.37455 2.12208 7.13093L2.12208 14.3294Z" transform="matrix(1.00035 0 0 -1 218.174 340.83)"/><path d="M6.24647 13.0519C5.2494 13.0519 4.49906 12.5605 3.99541 11.5778 3.49382 10.5971 3.24301 9.12096 3.24301 7.14936 3.24301 5.18595 3.49382 3.71287 3.99541 2.73014 4.49906 1.74742 5.2494 1.25605 6.24647 1.25605 7.25171 1.25605 8.00516 1.74742 8.50675 2.73014 9.0104 3.71287 9.26222 5.18595 9.26222 7.14936 9.26222 9.12096 9.0104 10.5971 8.50675 11.5778 8.00516 12.5605 7.25171 13.0519 6.24647 13.0519ZM6.24647 14.5874C7.85363 14.5874 9.08103 13.9517 9.92864 12.6803 10.7762 11.4109 11.2 9.56727 11.2 7.14936 11.2 4.73758 10.7762 2.89598 9.92864 1.62457 9.08103 0.355217 7.85363-0.279464 6.24647-0.279464 4.64134-0.279464 3.41498 0.355217 2.56738 1.62457 1.71978 2.89598 1.29597 4.73758 1.29597 7.14936 1.29597 9.56727 1.71978 11.4109 2.56738 12.6803 3.41498 13.9517 4.64134 14.5874 6.24647 14.5874Z" transform="matrix(1.00035 0 0 -1 230.683 340.83)"/><path d="M0 0 0-3.43955" stroke="#000000" stroke-width="0.786183" stroke-linejoin="round" fill="none" transform="matrix(1.00035 0 0 1 337.784 322.456)"/><path d="M2.4384 1.63072 5.60463 1.63072 5.60463 12.5636 2.15893 11.8726 2.15893 13.6384 5.5862 14.3294 7.52402 14.3294 7.52402 1.63072 10.6903 1.63072 10.6903 0 2.4384 0 2.4384 1.63072Z" transform="matrix(1.00035 0 0 -1 319.019 340.83)"/><path d="M6.24647 13.0519C5.2494 13.0519 4.49906 12.5605 3.99541 11.5778 3.49382 10.5971 3.24301 9.12096 3.24301 7.14936 3.24301 5.18595 3.49382 3.71287 3.99541 2.73014 4.49906 1.74742 5.2494 1.25605 6.24647 1.25605 7.25171 1.25605 8.00516 1.74742 8.50675 2.73014 9.0104 3.71287 9.26222 5.18595 9.26222 7.14936 9.26222 9.12096 9.0104 10.5971 8.50675 11.5778 8.00516 12.5605 7.25171 13.0519 6.24647 13.0519ZM6.24647 14.5874C7.85363 14.5874 9.08103 13.9517 9.92864 12.6803 10.7762 11.4109 11.2 9.56727 11.2 7.14936 11.2 4.73758 10.7762 2.89598 9.92864 1.62457 9.08103 0.355217 7.85363-0.279464 6.24647-0.279464 4.64134-0.279464 3.41498 0.355217 2.56738 1.62457 1.71978 2.89598 1.29597 4.73758 1.29597 7.14936 1.29597 9.56727 1.71978 11.4109 2.56738 12.6803 3.41498 13.9517 4.64134 14.5874 6.24647 14.5874Z" transform="matrix(1.00035 0 0 -1 331.528 340.83)"/><path d="M6.24647 13.0519C5.2494 13.0519 4.49906 12.5605 3.99541 11.5778 3.49382 10.5971 3.24301 9.12096 3.24301 7.14936 3.24301 5.18595 3.49382 3.71287 3.99541 2.73014 4.49906 1.74742 5.2494 1.25605 6.24647 1.25605 7.25171 1.25605 8.00516 1.74742 8.50675 2.73014 9.0104 3.71287 9.26222 5.18595 9.26222 7.14936 9.26222 9.12096 9.0104 10.5971 8.50675 11.5778 8.00516 12.5605 7.25171 13.0519 6.24647 13.0519ZM6.24647 14.5874C7.85363 14.5874 9.08103 13.9517 9.92864 12.6803 10.7762 11.4109 11.2 9.56727 11.2 7.14936 11.2 4.73758 10.7762 2.89598 9.92864 1.62457 9.08103 0.355217 7.85363-0.279464 6.24647-0.279464 4.64134-0.279464 3.41498 0.355217 2.56738 1.62457 1.71978 2.89598 1.29597 4.73758 1.29597 7.14936 1.29597 9.56727 1.71978 11.4109 2.56738 12.6803 3.41498 13.9517 4.64134 14.5874 6.24647 14.5874Z" transform="matrix(1.00035 0 0 -1 344.038 340.83)"/><path d="M0 0 0-3.43955" stroke="#000000" stroke-width="0.786183" stroke-linejoin="round" fill="none" transform="matrix(1.00035 0 0 1 444.884 322.456)"/><path d="M2.4384 1.63072 5.60463 1.63072 5.60463 12.5636 2.15893 11.8726 2.15893 13.6384 5.5862 14.3294 7.52402 14.3294 7.52402 1.63072 10.6903 1.63072 10.6903 0 2.4384 0 2.4384 1.63072Z" transform="matrix(1.00035 0 0 -1 426.12 340.83)"/><path d="M2.12208 14.3294 9.73209 14.3294 9.73209 12.6956 3.89714 12.6956 3.89714 9.18545C4.17761 9.28166 4.45812 9.35334 4.7386 9.40042 5.02113 9.4475 5.30367 9.47105 5.5862 9.47105 7.18519 9.47105 8.45147 9.03291 9.38506 8.15665 10.3207 7.2804 10.7885 6.09394 10.7885 4.59733 10.7885 3.05567 10.3084 1.85695 9.34821 1.00116 8.38799 0.147409 7.03471-0.279464 5.28831-0.279464 4.68639-0.279464 4.0732-0.22828 3.44877-0.125912 2.82637-0.0235446 2.18248 0.130007 1.51709 0.334742L1.51709 2.28485C2.09239 1.9716 2.68715 1.7382 3.30136 1.58465 3.91556 1.4311 4.56456 1.35432 5.24839 1.35432 6.35602 1.35432 7.23227 1.64505 7.87719 2.2265 8.52416 2.80794 8.84763 3.59823 8.84763 4.59733 8.84763 5.5944 8.52416 6.38366 7.87719 6.96509 7.23227 7.54859 6.35602 7.84034 5.24839 7.84034 4.7304 7.84034 4.21345 7.783 3.69752 7.66836 3.18364 7.55372 2.65849 7.37455 2.12208 7.13093L2.12208 14.3294Z" transform="matrix(1.00035 0 0 -1 438.629 340.83)"/><path d="M6.24647 13.0519C5.2494 13.0519 4.49906 12.5605 3.99541 11.5778 3.49382 10.5971 3.24301 9.12096 3.24301 7.14936 3.24301 5.18595 3.49382 3.71287 3.99541 2.73014 4.49906 1.74742 5.2494 1.25605 6.24647 1.25605 7.25171 1.25605 8.00516 1.74742 8.50675 2.73014 9.0104 3.71287 9.26222 5.18595 9.26222 7.14936 9.26222 9.12096 9.0104 10.5971 8.50675 11.5778 8.00516 12.5605 7.25171 13.0519 6.24647 13.0519ZM6.24647 14.5874C7.85363 14.5874 9.08103 13.9517 9.92864 12.6803 10.7762 11.4109 11.2 9.56727 11.2 7.14936 11.2 4.73758 10.7762 2.89598 9.92864 1.62457 9.08103 0.355217 7.85363-0.279464 6.24647-0.279464 4.64134-0.279464 3.41498 0.355217 2.56738 1.62457 1.71978 2.89598 1.29597 4.73758 1.29597 7.14936 1.29597 9.56727 1.71978 11.4109 2.56738 12.6803 3.41498 13.9517 4.64134 14.5874 6.24647 14.5874Z" transform="matrix(1.00035 0 0 -1 451.138 340.83)"/><path d="M0 0 3.43955 0" stroke="#000000" stroke-width="0.786183" stroke-linejoin="round" fill="none" transform="matrix(1.00035 0 0 1 107.625 291.432)"/><path d="M2.08216 6.97738 14.3847 6.97738 14.3847 5.34666 2.08216 5.34666 2.08216 6.97738Z" transform="matrix(1.00035 0 0 -1 75.1989 298.899)"/><path d="M2.4384 1.63072 5.60463 1.63072 5.60463 12.5636 2.15893 11.8726 2.15893 13.6384 5.5862 14.3294 7.52402 14.3294 7.52402 1.63072 10.6903 1.63072 10.6903 0 2.4384 0 2.4384 1.63072Z" transform="matrix(1.00035 0 0 -1 91.6731 298.899)"/><path d="M0 0 3.43955 0" stroke="#000000" stroke-width="0.786183" stroke-linejoin="round" fill="none" transform="matrix(1.00035 0 0 1 107.625 214.602)"/><path d="M6.24647 13.0519C5.2494 13.0519 4.49906 12.5605 3.99541 11.5778 3.49382 10.5971 3.24301 9.12096 3.24301 7.14936 3.24301 5.18595 3.49382 3.71287 3.99541 2.73014 4.49906 1.74742 5.2494 1.25605 6.24647 1.25605 7.25171 1.25605 8.00516 1.74742 8.50675 2.73014 9.0104 3.71287 9.26222 5.18595 9.26222 7.14936 9.26222 9.12096 9.0104 10.5971 8.50675 11.5778 8.00516 12.5605 7.25171 13.0519 6.24647 13.0519ZM6.24647 14.5874C7.85363 14.5874 9.08103 13.9517 9.92864 12.6803 10.7762 11.4109 11.2 9.56727 11.2 7.14936 11.2 4.73758 10.7762 2.89598 9.92864 1.62457 9.08103 0.355217 7.85363-0.279464 6.24647-0.279464 4.64134-0.279464 3.41498 0.355217 2.56738 1.62457 1.71978 2.89598 1.29597 4.73758 1.29597 7.14936 1.29597 9.56727 1.71978 11.4109 2.56738 12.6803 3.41498 13.9517 4.64134 14.5874 6.24647 14.5874Z" transform="matrix(1.00035 0 0 -1 91.6746 222.068)"/><path d="M0 0 3.43955 0" stroke="#000000" stroke-width="0.786183" stroke-linejoin="round" fill="none" transform="matrix(1.00035 0 0 1 107.625 137.771)"/><path d="M2.4384 1.63072 5.60463 1.63072 5.60463 12.5636 2.15893 11.8726 2.15893 13.6384 5.5862 14.3294 7.52402 14.3294 7.52402 1.63072 10.6903 1.63072 10.6903 0 2.4384 0 2.4384 1.63072Z" transform="matrix(1.00035 0 0 -1 91.6746 145.238)"/><path d="M0 0 3.43955 0" stroke="#000000" stroke-width="0.786183" stroke-linejoin="round" fill="none" transform="matrix(1.00035 0 0 1 107.625 60.9401)"/><path d="M3.77122 1.63072 10.5367 1.63072 10.5367 0 1.44031 0 1.44031 1.63072C2.17531 2.39233 3.1775 3.41397 4.44685 4.6956 5.71826 5.97929 6.51672 6.80746 6.84225 7.18007 7.4626 7.87618 7.89562 8.46581 8.1413 8.94898 8.38904 9.43214 8.51289 9.90714 8.51289 10.3739 8.51289 11.1356 8.24571 11.7559 7.71135 12.235 7.17699 12.7161 6.48089 12.9567 5.62305 12.9567 5.01499 12.9567 4.37315 12.8512 3.69752 12.6404 3.02394 12.4295 2.30327 12.1091 1.53551 11.6791L1.53551 13.6384C2.31556 13.9517 3.04441 14.1882 3.72209 14.3478 4.4018 14.5075 5.02319 14.5874 5.5862 14.5874 7.07052 14.5874 8.25391 14.2158 9.13631 13.4726 10.0187 12.7315 10.4599 11.7405 10.4599 10.4998 10.4599 9.91021 10.3494 9.35128 10.1283 8.82307 9.9092 8.29691 9.50791 7.67552 8.92441 6.95895 8.76472 6.77263 8.25594 6.23625 7.39811 5.34973 6.54231 4.46322 5.33336 3.22357 3.77122 1.63072Z" transform="matrix(1.00035 0 0 -1 91.6746 68.4073)"/><g clip-path="url(#clip4)"><path d="M72.5576 269.076 74.6988 272.184 76.8401 275.072 78.9814 277.175 81.1226 278.331 83.2639 278.387 85.4052 278.239 89.6876 276.954 100.394 275.525 102.535 275.295 106.818 275.218 108.959 273.405 111.1 269.759 113.242 265.33 115.383 260.158 117.524 256.304 119.665 253.642 121.806 252.266 123.948 251.757 126.089 251.716 128.23 251.82 130.372 251.493 132.513 250.792 134.655 249.756 136.795 249.695 138.936 249.864 141.078 249.863 143.219 247.764 145.36 243.755 147.502 236.959 151.785 213.56 156.066 186.416 160.349 163.982 166.773 133.58 168.914 125.041 171.056 117.762 173.197 111.842 175.338 106.721 177.479 103.385 179.62 102.44 181.762 101.855 183.903 101.552 186.044 100.87 188.186 100.384 190.327 100.078 192.469 99.6537 194.609 99.8541 196.75 100.218 201.033 100.075 205.316 100.252 207.457 100.695 209.598 100.688 211.74 101.09 213.88 102.145 216.022 101.861 220.304 101.773 222.446 101.84 226.728 102.476 228.87 102.33 231.011 102.621 233.152 102.8 237.434 102.695 239.576 102.668 243.858 102.983 248.141 102.801 250.282 103.198 254.564 103.19 256.706 103.036 260.988 103.029 269.554 103.619 271.694 103.907 273.836 104.445 275.977 104.625 278.118 106.239 280.26 108.717 282.401 112.943 284.542 118.111 286.684 124.551 288.825 132.263 290.966 141.427 293.107 151.318 297.39 172.873 299.531 182.855 301.672 193.913 303.814 204.314 308.096 223.803 310.237 232.838 312.378 240.892 314.52 248.139 316.661 253.021 318.802 256.852 320.944 259.35 323.085 260.286 325.226 260.692 327.368 260.884 329.508 260.927 331.65 261.123 333.791 260.997 338.074 260.369 340.215 260.353 344.498 261.035 353.062 261.325 355.204 261.645 357.345 262.443 359.486 264.656 361.628 268.32 363.769 274.702 368.052 289.636 370.192 292.623 372.334 291.98 374.475 289.629 376.616 286.648 378.758 284.378 380.899 283.397 383.04 283.012 387.322 283.123 391.605 282.391 391.605 282.391" stroke="#66CD00" stroke-width="1.96546" stroke-linejoin="round" stroke-dasharray="7.2722 3.14473" fill="none" transform="matrix(1.00035 0 0 1 51 20.1844)"/></g><g clip-path="url(#clip5)"><path d="M89.6876 276.954 91.8289 276.656 93.9701 276.398 96.1114 276.009 98.2527 275.672 100.394 275.525 102.535 275.295 104.676 275.304 106.818 275.218 108.959 273.405 111.1 269.759 113.242 265.33 115.383 260.158 117.524 256.304 119.665 253.642 121.806 252.266 123.948 251.757 126.089 251.716 128.23 251.82 130.372 251.493 132.513 250.792 134.655 249.756 136.795 249.695 138.936 249.864 141.078 249.863 143.219 247.764 145.36 243.755 147.502 236.959 149.643 225.44 151.785 213.56 153.926 199.889 156.066 186.416 158.208 175.17 160.349 163.982" stroke="#FF0000" stroke-width="5.89638" stroke-linecap="square" stroke-linejoin="round" stroke-opacity="0.8" fill="none" transform="matrix(1.00035 0 0 1 51 20.1844)"/></g><path d="M56.6052 302.272 56.6052 40.7557" stroke="#000000" stroke-width="0.786183" stroke-linecap="square" fill="none" transform="matrix(1.00035 0 0 1 51 20.1844)"/><path d="M407.557 302.272 407.557 40.7557" stroke="#000000" stroke-width="0.786183" stroke-linecap="square" fill="none" transform="matrix(1.00035 0 0 1 51 20.1844)"/><path d="M56.6052 302.272 407.557 302.272" stroke="#000000" stroke-width="0.786183" stroke-linecap="square" fill="none" transform="matrix(1.00035 0 0 1 51 20.1844)"/><path d="M56.6052 40.7557 407.557 40.7557" stroke="#000000" stroke-width="0.786183" stroke-linecap="square" fill="none" transform="matrix(1.00035 0 0 1 51 20.1844)"/></g></g></g><g clip-path="url(#clip6)"><g clip-path="url(#clip7)"><g clip-path="url(#clip8)"><path d="M0 339.631 452.842 339.631 452.842 0 0 0Z" fill="#FFFFFF" transform="matrix(1.00176 0 0 1 455.359 23.1844)"/><path d="M56.6052 302.272 407.557 302.272 407.557 40.7557 56.6052 40.7557Z" fill="#FFFFFF" transform="matrix(1.00176 0 0 1 455.359 23.1844)"/><path d="M0 0 0-3.43955" stroke="#000000" stroke-width="0.786183" stroke-linejoin="round" fill="none" transform="matrix(1.00176 0 0 1 528.045 325.456)"/><path d="M6.24647 13.0519C5.2494 13.0519 4.49906 12.5605 3.99541 11.5778 3.49382 10.5971 3.24301 9.12096 3.24301 7.14936 3.24301 5.18595 3.49382 3.71287 3.99541 2.73014 4.49906 1.74742 5.2494 1.25605 6.24647 1.25605 7.25171 1.25605 8.00516 1.74742 8.50675 2.73014 9.0104 3.71287 9.26222 5.18595 9.26222 7.14936 9.26222 9.12096 9.0104 10.5971 8.50675 11.5778 8.00516 12.5605 7.25171 13.0519 6.24647 13.0519ZM6.24647 14.5874C7.85363 14.5874 9.08103 13.9517 9.92864 12.6803 10.7762 11.4109 11.2 9.56727 11.2 7.14936 11.2 4.73758 10.7762 2.89598 9.92864 1.62457 9.08103 0.355217 7.85363-0.279464 6.24647-0.279464 4.64134-0.279464 3.41498 0.355217 2.56738 1.62457 1.71978 2.89598 1.29597 4.73758 1.29597 7.14936 1.29597 9.56727 1.71978 11.4109 2.56738 12.6803 3.41498 13.9517 4.64134 14.5874 6.24647 14.5874Z" transform="matrix(1.00176 0 0 -1 521.781 343.83)"/><path d="M0 0 0-3.43955" stroke="#000000" stroke-width="0.786183" stroke-linejoin="round" fill="none" transform="matrix(1.00176 0 0 1 635.297 325.456)"/><path d="M2.12208 14.3294 9.73209 14.3294 9.73209 12.6956 3.89714 12.6956 3.89714 9.18545C4.17761 9.28166 4.45812 9.35334 4.7386 9.40042 5.02113 9.4475 5.30367 9.47105 5.5862 9.47105 7.18519 9.47105 8.45147 9.03291 9.38506 8.15665 10.3207 7.2804 10.7885 6.09394 10.7885 4.59733 10.7885 3.05567 10.3084 1.85695 9.34821 1.00116 8.38799 0.147409 7.03471-0.279464 5.28831-0.279464 4.68639-0.279464 4.0732-0.22828 3.44877-0.125912 2.82637-0.0235446 2.18248 0.130007 1.51709 0.334742L1.51709 2.28485C2.09239 1.9716 2.68715 1.7382 3.30136 1.58465 3.91556 1.4311 4.56456 1.35432 5.24839 1.35432 6.35602 1.35432 7.23227 1.64505 7.87719 2.2265 8.52416 2.80794 8.84763 3.59823 8.84763 4.59733 8.84763 5.5944 8.52416 6.38366 7.87719 6.96509 7.23227 7.54859 6.35602 7.84034 5.24839 7.84034 4.7304 7.84034 4.21345 7.783 3.69752 7.66836 3.18364 7.55372 2.65849 7.37455 2.12208 7.13093L2.12208 14.3294Z" transform="matrix(1.00176 0 0 -1 622.769 343.83)"/><path d="M6.24647 13.0519C5.2494 13.0519 4.49906 12.5605 3.99541 11.5778 3.49382 10.5971 3.24301 9.12096 3.24301 7.14936 3.24301 5.18595 3.49382 3.71287 3.99541 2.73014 4.49906 1.74742 5.2494 1.25605 6.24647 1.25605 7.25171 1.25605 8.00516 1.74742 8.50675 2.73014 9.0104 3.71287 9.26222 5.18595 9.26222 7.14936 9.26222 9.12096 9.0104 10.5971 8.50675 11.5778 8.00516 12.5605 7.25171 13.0519 6.24647 13.0519ZM6.24647 14.5874C7.85363 14.5874 9.08103 13.9517 9.92864 12.6803 10.7762 11.4109 11.2 9.56727 11.2 7.14936 11.2 4.73758 10.7762 2.89598 9.92864 1.62457 9.08103 0.355217 7.85363-0.279464 6.24647-0.279464 4.64134-0.279464 3.41498 0.355217 2.56738 1.62457 1.71978 2.89598 1.29597 4.73758 1.29597 7.14936 1.29597 9.56727 1.71978 11.4109 2.56738 12.6803 3.41498 13.9517 4.64134 14.5874 6.24647 14.5874Z" transform="matrix(1.00176 0 0 -1 635.296 343.83)"/><path d="M0 0 0-3.43955" stroke="#000000" stroke-width="0.786183" stroke-linejoin="round" fill="none" transform="matrix(1.00176 0 0 1 742.549 325.456)"/><path d="M2.4384 1.63072 5.60463 1.63072 5.60463 12.5636 2.15893 11.8726 2.15893 13.6384 5.5862 14.3294 7.52402 14.3294 7.52402 1.63072 10.6903 1.63072 10.6903 0 2.4384 0 2.4384 1.63072Z" transform="matrix(1.00176 0 0 -1 723.758 343.83)"/><path d="M6.24647 13.0519C5.2494 13.0519 4.49906 12.5605 3.99541 11.5778 3.49382 10.5971 3.24301 9.12096 3.24301 7.14936 3.24301 5.18595 3.49382 3.71287 3.99541 2.73014 4.49906 1.74742 5.2494 1.25605 6.24647 1.25605 7.25171 1.25605 8.00516 1.74742 8.50675 2.73014 9.0104 3.71287 9.26222 5.18595 9.26222 7.14936 9.26222 9.12096 9.0104 10.5971 8.50675 11.5778 8.00516 12.5605 7.25171 13.0519 6.24647 13.0519ZM6.24647 14.5874C7.85363 14.5874 9.08103 13.9517 9.92864 12.6803 10.7762 11.4109 11.2 9.56727 11.2 7.14936 11.2 4.73758 10.7762 2.89598 9.92864 1.62457 9.08103 0.355217 7.85363-0.279464 6.24647-0.279464 4.64134-0.279464 3.41498 0.355217 2.56738 1.62457 1.71978 2.89598 1.29597 4.73758 1.29597 7.14936 1.29597 9.56727 1.71978 11.4109 2.56738 12.6803 3.41498 13.9517 4.64134 14.5874 6.24647 14.5874Z" transform="matrix(1.00176 0 0 -1 736.284 343.83)"/><path d="M6.24647 13.0519C5.2494 13.0519 4.49906 12.5605 3.99541 11.5778 3.49382 10.5971 3.24301 9.12096 3.24301 7.14936 3.24301 5.18595 3.49382 3.71287 3.99541 2.73014 4.49906 1.74742 5.2494 1.25605 6.24647 1.25605 7.25171 1.25605 8.00516 1.74742 8.50675 2.73014 9.0104 3.71287 9.26222 5.18595 9.26222 7.14936 9.26222 9.12096 9.0104 10.5971 8.50675 11.5778 8.00516 12.5605 7.25171 13.0519 6.24647 13.0519ZM6.24647 14.5874C7.85363 14.5874 9.08103 13.9517 9.92864 12.6803 10.7762 11.4109 11.2 9.56727 11.2 7.14936 11.2 4.73758 10.7762 2.89598 9.92864 1.62457 9.08103 0.355217 7.85363-0.279464 6.24647-0.279464 4.64134-0.279464 3.41498 0.355217 2.56738 1.62457 1.71978 2.89598 1.29597 4.73758 1.29597 7.14936 1.29597 9.56727 1.71978 11.4109 2.56738 12.6803 3.41498 13.9517 4.64134 14.5874 6.24647 14.5874Z" transform="matrix(1.00176 0 0 -1 748.811 343.83)"/><path d="M0 0 0-3.43955" stroke="#000000" stroke-width="0.786183" stroke-linejoin="round" fill="none" transform="matrix(1.00176 0 0 1 849.8 325.456)"/><path d="M2.4384 1.63072 5.60463 1.63072 5.60463 12.5636 2.15893 11.8726 2.15893 13.6384 5.5862 14.3294 7.52402 14.3294 7.52402 1.63072 10.6903 1.63072 10.6903 0 2.4384 0 2.4384 1.63072Z" transform="matrix(1.00176 0 0 -1 831.01 343.83)"/><path d="M2.12208 14.3294 9.73209 14.3294 9.73209 12.6956 3.89714 12.6956 3.89714 9.18545C4.17761 9.28166 4.45812 9.35334 4.7386 9.40042 5.02113 9.4475 5.30367 9.47105 5.5862 9.47105 7.18519 9.47105 8.45147 9.03291 9.38506 8.15665 10.3207 7.2804 10.7885 6.09394 10.7885 4.59733 10.7885 3.05567 10.3084 1.85695 9.34821 1.00116 8.38799 0.147409 7.03471-0.279464 5.28831-0.279464 4.68639-0.279464 4.0732-0.22828 3.44877-0.125912 2.82637-0.0235446 2.18248 0.130007 1.51709 0.334742L1.51709 2.28485C2.09239 1.9716 2.68715 1.7382 3.30136 1.58465 3.91556 1.4311 4.56456 1.35432 5.24839 1.35432 6.35602 1.35432 7.23227 1.64505 7.87719 2.2265 8.52416 2.80794 8.84763 3.59823 8.84763 4.59733 8.84763 5.5944 8.52416 6.38366 7.87719 6.96509 7.23227 7.54859 6.35602 7.84034 5.24839 7.84034 4.7304 7.84034 4.21345 7.783 3.69752 7.66836 3.18364 7.55372 2.65849 7.37455 2.12208 7.13093L2.12208 14.3294Z" transform="matrix(1.00176 0 0 -1 843.537 343.83)"/><path d="M6.24647 13.0519C5.2494 13.0519 4.49906 12.5605 3.99541 11.5778 3.49382 10.5971 3.24301 9.12096 3.24301 7.14936 3.24301 5.18595 3.49382 3.71287 3.99541 2.73014 4.49906 1.74742 5.2494 1.25605 6.24647 1.25605 7.25171 1.25605 8.00516 1.74742 8.50675 2.73014 9.0104 3.71287 9.26222 5.18595 9.26222 7.14936 9.26222 9.12096 9.0104 10.5971 8.50675 11.5778 8.00516 12.5605 7.25171 13.0519 6.24647 13.0519ZM6.24647 14.5874C7.85363 14.5874 9.08103 13.9517 9.92864 12.6803 10.7762 11.4109 11.2 9.56727 11.2 7.14936 11.2 4.73758 10.7762 2.89598 9.92864 1.62457 9.08103 0.355217 7.85363-0.279464 6.24647-0.279464 4.64134-0.279464 3.41498 0.355217 2.56738 1.62457 1.71978 2.89598 1.29597 4.73758 1.29597 7.14936 1.29597 9.56727 1.71978 11.4109 2.56738 12.6803 3.41498 13.9517 4.64134 14.5874 6.24647 14.5874Z" transform="matrix(1.00176 0 0 -1 856.064 343.83)"/><path d="M0 0 3.43955 0" stroke="#000000" stroke-width="0.786183" stroke-linejoin="round" fill="none" transform="matrix(1.00176 0 0 1 512.064 312.961)"/><path d="M2.08216 6.97738 14.3847 6.97738 14.3847 5.34666 2.08216 5.34666 2.08216 6.97738Z" transform="matrix(1.00176 0 0 -1 479.592 320.428)"/><path d="M2.4384 1.63072 5.60463 1.63072 5.60463 12.5636 2.15893 11.8726 2.15893 13.6384 5.5862 14.3294 7.52402 14.3294 7.52402 1.63072 10.6903 1.63072 10.6903 0 2.4384 0 2.4384 1.63072Z" transform="matrix(1.00176 0 0 -1 496.09 320.428)"/><path d="M0 0 3.43955 0" stroke="#000000" stroke-width="0.786183" stroke-linejoin="round" fill="none" transform="matrix(1.00176 0 0 1 512.064 229.954)"/><path d="M6.24647 13.0519C5.2494 13.0519 4.49906 12.5605 3.99541 11.5778 3.49382 10.5971 3.24301 9.12096 3.24301 7.14936 3.24301 5.18595 3.49382 3.71287 3.99541 2.73014 4.49906 1.74742 5.2494 1.25605 6.24647 1.25605 7.25171 1.25605 8.00516 1.74742 8.50675 2.73014 9.0104 3.71287 9.26222 5.18595 9.26222 7.14936 9.26222 9.12096 9.0104 10.5971 8.50675 11.5778 8.00516 12.5605 7.25171 13.0519 6.24647 13.0519ZM6.24647 14.5874C7.85363 14.5874 9.08103 13.9517 9.92864 12.6803 10.7762 11.4109 11.2 9.56727 11.2 7.14936 11.2 4.73758 10.7762 2.89598 9.92864 1.62457 9.08103 0.355217 7.85363-0.279464 6.24647-0.279464 4.64134-0.279464 3.41498 0.355217 2.56738 1.62457 1.71978 2.89598 1.29597 4.73758 1.29597 7.14936 1.29597 9.56727 1.71978 11.4109 2.56738 12.6803 3.41498 13.9517 4.64134 14.5874 6.24647 14.5874Z" transform="matrix(1.00176 0 0 -1 496.092 237.42)"/><path d="M0 0 3.43955 0" stroke="#000000" stroke-width="0.786183" stroke-linejoin="round" fill="none" transform="matrix(1.00176 0 0 1 512.064 146.947)"/><path d="M2.4384 1.63072 5.60463 1.63072 5.60463 12.5636 2.15893 11.8726 2.15893 13.6384 5.5862 14.3294 7.52402 14.3294 7.52402 1.63072 10.6903 1.63072 10.6903 0 2.4384 0 2.4384 1.63072Z" transform="matrix(1.00176 0 0 -1 496.092 154.414)"/><path d="M0 0 3.43955 0" stroke="#000000" stroke-width="0.786183" stroke-linejoin="round" fill="none" transform="matrix(1.00176 0 0 1 512.064 63.9401)"/><path d="M3.77122 1.63072 10.5367 1.63072 10.5367 0 1.44031 0 1.44031 1.63072C2.17531 2.39233 3.1775 3.41397 4.44685 4.6956 5.71826 5.97929 6.51672 6.80746 6.84225 7.18007 7.4626 7.87618 7.89562 8.46581 8.1413 8.94898 8.38904 9.43214 8.51289 9.90714 8.51289 10.3739 8.51289 11.1356 8.24571 11.7559 7.71135 12.235 7.17699 12.7161 6.48089 12.9567 5.62305 12.9567 5.01499 12.9567 4.37315 12.8512 3.69752 12.6404 3.02394 12.4295 2.30327 12.1091 1.53551 11.6791L1.53551 13.6384C2.31556 13.9517 3.04441 14.1882 3.72209 14.3478 4.4018 14.5075 5.02319 14.5874 5.5862 14.5874 7.07052 14.5874 8.25391 14.2158 9.13631 13.4726 10.0187 12.7315 10.4599 11.7405 10.4599 10.4998 10.4599 9.91021 10.3494 9.35128 10.1283 8.82307 9.9092 8.29691 9.50791 7.67552 8.92441 6.95895 8.76472 6.77263 8.25594 6.23625 7.39811 5.34973 6.54231 4.46322 5.33336 3.22357 3.77122 1.63072Z" transform="matrix(1.00176 0 0 -1 496.092 71.4073)"/><g clip-path="url(#clip9)"><path d="M72.5576 287.235 74.6988 287.461 81.1226 287.611 83.2639 287.866 87.5464 287.912 89.6876 288.044 93.9701 287.936 98.2527 288.25 100.394 288.244 104.676 288.101 106.818 287.573 108.959 285.868 111.1 280.599 113.242 271.06 115.383 257.251 117.524 237.898 126.089 150.644 128.23 134.465 130.372 121.911 132.513 113.243 134.655 107.682 136.795 103.508 138.936 103.042 141.078 103.22 143.219 103.801 145.36 104.727 147.502 105.298 149.643 105.517 151.785 105.353 153.926 105.69 156.066 105.254 158.208 105.009 160.349 105.468 162.49 105.312 164.632 104.92 166.773 105.178 168.914 105.148 171.056 106.049 177.479 106.747 186.044 107.007 188.186 106.795 190.327 107.058 192.469 107.032 196.75 107.695 201.033 107.769 203.174 108.084 205.316 107.949 207.457 107.925 209.598 108.568 211.74 108.578 213.88 108.28 216.022 108.25 220.304 108.711 222.446 108.375 224.587 108.517 226.728 109.212 231.011 112.047 233.152 113.58 235.293 113.58 237.434 117.308 239.576 119.304 241.717 122.934 243.858 125.233 246 128.383 248.141 130.462 250.282 134.46 254.564 143.732 256.706 149.912 258.847 159.277 260.988 169.771 263.13 181.936 265.271 195.844 269.554 225.714 271.694 240.33 273.836 253.482 275.977 265.687 278.118 275.565 280.26 284 282.401 289.283 284.542 291.969 286.684 292.785 288.825 292.7 290.966 292.217 293.107 290.345 295.248 288.809 297.39 286.739 299.531 285.522 301.672 284.115 303.814 283.146 305.955 282.727 310.237 282.72 312.378 282.453 318.802 282.266 329.508 282.22 331.65 282.102 333.791 282.316 344.498 282.569 350.921 282.861 353.062 283.075 355.204 282.916 357.345 283.276 359.486 283.212 365.91 283.291 368.052 283.241 370.192 283.39 372.334 283.371 374.475 283.528 376.616 283.362 378.758 283.488 385.182 283.475 389.463 283.681 391.605 283.964 391.605 283.964" stroke="#0000CD" stroke-width="1.96546" stroke-linejoin="round" stroke-dasharray="7.2722 3.14473" fill="none" transform="matrix(1.00176 0 0 1 455.359 23.1844)"/></g><g clip-path="url(#clip10)"><path d="M72.5576 287.235 74.6988 287.461 76.8401 287.503 78.9814 287.589 81.1226 287.611 83.2639 287.866 85.4052 287.858 87.5464 287.912 89.6876 288.044 91.8289 287.993 93.9701 287.936 96.1114 288.107 98.2527 288.25 100.394 288.244 102.535 288.126 104.676 288.101 106.818 287.573 108.959 285.868 111.1 280.599 113.242 271.06 115.383 257.251 117.524 237.898" stroke="#FF0000" stroke-width="5.89638" stroke-linecap="square" stroke-linejoin="round" stroke-opacity="0.8" fill="none" transform="matrix(1.00176 0 0 1 455.359 23.1844)"/></g><path d="M56.6052 302.272 56.6052 40.7557" stroke="#000000" stroke-width="0.786183" stroke-linecap="square" fill="none" transform="matrix(1.00176 0 0 1 455.359 23.1844)"/><path d="M407.557 302.272 407.557 40.7557" stroke="#000000" stroke-width="0.786183" stroke-linecap="square" fill="none" transform="matrix(1.00176 0 0 1 455.359 23.1844)"/><path d="M56.6052 302.272 407.557 302.272" stroke="#000000" stroke-width="0.786183" stroke-linecap="square" fill="none" transform="matrix(1.00176 0 0 1 455.359 23.1844)"/><path d="M56.6052 40.7557 407.557 40.7557" stroke="#000000" stroke-width="0.786183" stroke-linecap="square" fill="none" transform="matrix(1.00176 0 0 1 455.359 23.1844)"/></g></g></g><g clip-path="url(#clip11)"><g clip-path="url(#clip12)"><g clip-path="url(#clip13)"><path d="M0 339.631 452.842 339.631 452.842 0 0 0Z" fill="#FFFFFF" transform="matrix(1.00035 0 0 1 61 357.184)"/><path d="M56.6052 302.272 407.557 302.272 407.557 40.7557 56.6052 40.7557Z" fill="#FFFFFF" transform="matrix(1.00035 0 0 1 61 357.184)"/><path d="M0 0 0-3.43955" stroke="#000000" stroke-width="0.786183" stroke-linejoin="round" fill="none" transform="matrix(1.00035 0 0 1 133.583 659.456)"/><path d="M6.24647 13.0519C5.2494 13.0519 4.49906 12.5605 3.99541 11.5778 3.49382 10.5971 3.24301 9.12096 3.24301 7.14936 3.24301 5.18595 3.49382 3.71287 3.99541 2.73014 4.49906 1.74742 5.2494 1.25605 6.24647 1.25605 7.25171 1.25605 8.00516 1.74742 8.50675 2.73014 9.0104 3.71287 9.26222 5.18595 9.26222 7.14936 9.26222 9.12096 9.0104 10.5971 8.50675 11.5778 8.00516 12.5605 7.25171 13.0519 6.24647 13.0519ZM6.24647 14.5874C7.85363 14.5874 9.08103 13.9517 9.92864 12.6803 10.7762 11.4109 11.2 9.56727 11.2 7.14936 11.2 4.73758 10.7762 2.89598 9.92864 1.62457 9.08103 0.355217 7.85363-0.279464 6.24647-0.279464 4.64134-0.279464 3.41498 0.355217 2.56738 1.62457 1.71978 2.89598 1.29597 4.73758 1.29597 7.14936 1.29597 9.56727 1.71978 11.4109 2.56738 12.6803 3.41498 13.9517 4.64134 14.5874 6.24647 14.5874Z" transform="matrix(1.00035 0 0 -1 127.328 677.83)"/><path d="M0 0 0-3.43955" stroke="#000000" stroke-width="0.786183" stroke-linejoin="round" fill="none" transform="matrix(1.00035 0 0 1 240.683 659.456)"/><path d="M2.12208 14.3294 9.73209 14.3294 9.73209 12.6956 3.89714 12.6956 3.89714 9.18545C4.17761 9.28166 4.45812 9.35334 4.7386 9.40042 5.02113 9.4475 5.30367 9.47105 5.5862 9.47105 7.18519 9.47105 8.45147 9.03291 9.38506 8.15665 10.3207 7.2804 10.7885 6.09394 10.7885 4.59733 10.7885 3.05567 10.3084 1.85695 9.34821 1.00116 8.38799 0.147409 7.03471-0.279464 5.28831-0.279464 4.68639-0.279464 4.0732-0.22828 3.44877-0.125912 2.82637-0.0235446 2.18248 0.130007 1.51709 0.334742L1.51709 2.28485C2.09239 1.9716 2.68715 1.7382 3.30136 1.58465 3.91556 1.4311 4.56456 1.35432 5.24839 1.35432 6.35602 1.35432 7.23227 1.64505 7.87719 2.2265 8.52416 2.80794 8.84763 3.59823 8.84763 4.59733 8.84763 5.5944 8.52416 6.38366 7.87719 6.96509 7.23227 7.54859 6.35602 7.84034 5.24839 7.84034 4.7304 7.84034 4.21345 7.783 3.69752 7.66836 3.18364 7.55372 2.65849 7.37455 2.12208 7.13093L2.12208 14.3294Z" transform="matrix(1.00035 0 0 -1 228.174 677.83)"/><path d="M6.24647 13.0519C5.2494 13.0519 4.49906 12.5605 3.99541 11.5778 3.49382 10.5971 3.24301 9.12096 3.24301 7.14936 3.24301 5.18595 3.49382 3.71287 3.99541 2.73014 4.49906 1.74742 5.2494 1.25605 6.24647 1.25605 7.25171 1.25605 8.00516 1.74742 8.50675 2.73014 9.0104 3.71287 9.26222 5.18595 9.26222 7.14936 9.26222 9.12096 9.0104 10.5971 8.50675 11.5778 8.00516 12.5605 7.25171 13.0519 6.24647 13.0519ZM6.24647 14.5874C7.85363 14.5874 9.08103 13.9517 9.92864 12.6803 10.7762 11.4109 11.2 9.56727 11.2 7.14936 11.2 4.73758 10.7762 2.89598 9.92864 1.62457 9.08103 0.355217 7.85363-0.279464 6.24647-0.279464 4.64134-0.279464 3.41498 0.355217 2.56738 1.62457 1.71978 2.89598 1.29597 4.73758 1.29597 7.14936 1.29597 9.56727 1.71978 11.4109 2.56738 12.6803 3.41498 13.9517 4.64134 14.5874 6.24647 14.5874Z" transform="matrix(1.00035 0 0 -1 240.683 677.83)"/><path d="M0 0 0-3.43955" stroke="#000000" stroke-width="0.786183" stroke-linejoin="round" fill="none" transform="matrix(1.00035 0 0 1 347.784 659.456)"/><path d="M2.4384 1.63072 5.60463 1.63072 5.60463 12.5636 2.15893 11.8726 2.15893 13.6384 5.5862 14.3294 7.52402 14.3294 7.52402 1.63072 10.6903 1.63072 10.6903 0 2.4384 0 2.4384 1.63072Z" transform="matrix(1.00035 0 0 -1 329.019 677.83)"/><path d="M6.24647 13.0519C5.2494 13.0519 4.49906 12.5605 3.99541 11.5778 3.49382 10.5971 3.24301 9.12096 3.24301 7.14936 3.24301 5.18595 3.49382 3.71287 3.99541 2.73014 4.49906 1.74742 5.2494 1.25605 6.24647 1.25605 7.25171 1.25605 8.00516 1.74742 8.50675 2.73014 9.0104 3.71287 9.26222 5.18595 9.26222 7.14936 9.26222 9.12096 9.0104 10.5971 8.50675 11.5778 8.00516 12.5605 7.25171 13.0519 6.24647 13.0519ZM6.24647 14.5874C7.85363 14.5874 9.08103 13.9517 9.92864 12.6803 10.7762 11.4109 11.2 9.56727 11.2 7.14936 11.2 4.73758 10.7762 2.89598 9.92864 1.62457 9.08103 0.355217 7.85363-0.279464 6.24647-0.279464 4.64134-0.279464 3.41498 0.355217 2.56738 1.62457 1.71978 2.89598 1.29597 4.73758 1.29597 7.14936 1.29597 9.56727 1.71978 11.4109 2.56738 12.6803 3.41498 13.9517 4.64134 14.5874 6.24647 14.5874Z" transform="matrix(1.00035 0 0 -1 341.528 677.83)"/><path d="M6.24647 13.0519C5.2494 13.0519 4.49906 12.5605 3.99541 11.5778 3.49382 10.5971 3.24301 9.12096 3.24301 7.14936 3.24301 5.18595 3.49382 3.71287 3.99541 2.73014 4.49906 1.74742 5.2494 1.25605 6.24647 1.25605 7.25171 1.25605 8.00516 1.74742 8.50675 2.73014 9.0104 3.71287 9.26222 5.18595 9.26222 7.14936 9.26222 9.12096 9.0104 10.5971 8.50675 11.5778 8.00516 12.5605 7.25171 13.0519 6.24647 13.0519ZM6.24647 14.5874C7.85363 14.5874 9.08103 13.9517 9.92864 12.6803 10.7762 11.4109 11.2 9.56727 11.2 7.14936 11.2 4.73758 10.7762 2.89598 9.92864 1.62457 9.08103 0.355217 7.85363-0.279464 6.24647-0.279464 4.64134-0.279464 3.41498 0.355217 2.56738 1.62457 1.71978 2.89598 1.29597 4.73758 1.29597 7.14936 1.29597 9.56727 1.71978 11.4109 2.56738 12.6803 3.41498 13.9517 4.64134 14.5874 6.24647 14.5874Z" transform="matrix(1.00035 0 0 -1 354.038 677.83)"/><path d="M0 0 0-3.43955" stroke="#000000" stroke-width="0.786183" stroke-linejoin="round" fill="none" transform="matrix(1.00035 0 0 1 454.884 659.456)"/><path d="M2.4384 1.63072 5.60463 1.63072 5.60463 12.5636 2.15893 11.8726 2.15893 13.6384 5.5862 14.3294 7.52402 14.3294 7.52402 1.63072 10.6903 1.63072 10.6903 0 2.4384 0 2.4384 1.63072Z" transform="matrix(1.00035 0 0 -1 436.12 677.83)"/><path d="M2.12208 14.3294 9.73209 14.3294 9.73209 12.6956 3.89714 12.6956 3.89714 9.18545C4.17761 9.28166 4.45812 9.35334 4.7386 9.40042 5.02113 9.4475 5.30367 9.47105 5.5862 9.47105 7.18519 9.47105 8.45147 9.03291 9.38506 8.15665 10.3207 7.2804 10.7885 6.09394 10.7885 4.59733 10.7885 3.05567 10.3084 1.85695 9.34821 1.00116 8.38799 0.147409 7.03471-0.279464 5.28831-0.279464 4.68639-0.279464 4.0732-0.22828 3.44877-0.125912 2.82637-0.0235446 2.18248 0.130007 1.51709 0.334742L1.51709 2.28485C2.09239 1.9716 2.68715 1.7382 3.30136 1.58465 3.91556 1.4311 4.56456 1.35432 5.24839 1.35432 6.35602 1.35432 7.23227 1.64505 7.87719 2.2265 8.52416 2.80794 8.84763 3.59823 8.84763 4.59733 8.84763 5.5944 8.52416 6.38366 7.87719 6.96509 7.23227 7.54859 6.35602 7.84034 5.24839 7.84034 4.7304 7.84034 4.21345 7.783 3.69752 7.66836 3.18364 7.55372 2.65849 7.37455 2.12208 7.13093L2.12208 14.3294Z" transform="matrix(1.00035 0 0 -1 448.629 677.83)"/><path d="M6.24647 13.0519C5.2494 13.0519 4.49906 12.5605 3.99541 11.5778 3.49382 10.5971 3.24301 9.12096 3.24301 7.14936 3.24301 5.18595 3.49382 3.71287 3.99541 2.73014 4.49906 1.74742 5.2494 1.25605 6.24647 1.25605 7.25171 1.25605 8.00516 1.74742 8.50675 2.73014 9.0104 3.71287 9.26222 5.18595 9.26222 7.14936 9.26222 9.12096 9.0104 10.5971 8.50675 11.5778 8.00516 12.5605 7.25171 13.0519 6.24647 13.0519ZM6.24647 14.5874C7.85363 14.5874 9.08103 13.9517 9.92864 12.6803 10.7762 11.4109 11.2 9.56727 11.2 7.14936 11.2 4.73758 10.7762 2.89598 9.92864 1.62457 9.08103 0.355217 7.85363-0.279464 6.24647-0.279464 4.64134-0.279464 3.41498 0.355217 2.56738 1.62457 1.71978 2.89598 1.29597 4.73758 1.29597 7.14936 1.29597 9.56727 1.71978 11.4109 2.56738 12.6803 3.41498 13.9517 4.64134 14.5874 6.24647 14.5874Z" transform="matrix(1.00035 0 0 -1 461.138 677.83)"/><path d="M0 0 3.43955 0" stroke="#000000" stroke-width="0.786183" stroke-linejoin="round" fill="none" transform="matrix(1.00035 0 0 1 117.625 636.116)"/><path d="M2.08216 6.97738 14.3847 6.97738 14.3847 5.34666 2.08216 5.34666 2.08216 6.97738Z" transform="matrix(1.00035 0 0 -1 85.1989 643.584)"/><path d="M2.4384 1.63072 5.60463 1.63072 5.60463 12.5636 2.15893 11.8726 2.15893 13.6384 5.5862 14.3294 7.52402 14.3294 7.52402 1.63072 10.6903 1.63072 10.6903 0 2.4384 0 2.4384 1.63072Z" transform="matrix(1.00035 0 0 -1 101.673 643.584)"/><path d="M0 0 3.43955 0" stroke="#000000" stroke-width="0.786183" stroke-linejoin="round" fill="none" transform="matrix(1.00035 0 0 1 117.625 556.725)"/><path d="M6.24647 13.0519C5.2494 13.0519 4.49906 12.5605 3.99541 11.5778 3.49382 10.5971 3.24301 9.12096 3.24301 7.14936 3.24301 5.18595 3.49382 3.71287 3.99541 2.73014 4.49906 1.74742 5.2494 1.25605 6.24647 1.25605 7.25171 1.25605 8.00516 1.74742 8.50675 2.73014 9.0104 3.71287 9.26222 5.18595 9.26222 7.14936 9.26222 9.12096 9.0104 10.5971 8.50675 11.5778 8.00516 12.5605 7.25171 13.0519 6.24647 13.0519ZM6.24647 14.5874C7.85363 14.5874 9.08103 13.9517 9.92864 12.6803 10.7762 11.4109 11.2 9.56727 11.2 7.14936 11.2 4.73758 10.7762 2.89598 9.92864 1.62457 9.08103 0.355217 7.85363-0.279464 6.24647-0.279464 4.64134-0.279464 3.41498 0.355217 2.56738 1.62457 1.71978 2.89598 1.29597 4.73758 1.29597 7.14936 1.29597 9.56727 1.71978 11.4109 2.56738 12.6803 3.41498 13.9517 4.64134 14.5874 6.24647 14.5874Z" transform="matrix(1.00035 0 0 -1 101.675 564.191)"/><path d="M0 0 3.43955 0" stroke="#000000" stroke-width="0.786183" stroke-linejoin="round" fill="none" transform="matrix(1.00035 0 0 1 117.625 477.332)"/><path d="M2.4384 1.63072 5.60463 1.63072 5.60463 12.5636 2.15893 11.8726 2.15893 13.6384 5.5862 14.3294 7.52402 14.3294 7.52402 1.63072 10.6903 1.63072 10.6903 0 2.4384 0 2.4384 1.63072Z" transform="matrix(1.00035 0 0 -1 101.675 484.8)"/><path d="M0 0 3.43955 0" stroke="#000000" stroke-width="0.786183" stroke-linejoin="round" fill="none" transform="matrix(1.00035 0 0 1 117.625 397.94)"/><path d="M3.77122 1.63072 10.5367 1.63072 10.5367 0 1.44031 0 1.44031 1.63072C2.17531 2.39233 3.1775 3.41397 4.44685 4.6956 5.71826 5.97929 6.51672 6.80746 6.84225 7.18007 7.4626 7.87618 7.89562 8.46581 8.1413 8.94898 8.38904 9.43214 8.51289 9.90714 8.51289 10.3739 8.51289 11.1356 8.24571 11.7559 7.71135 12.235 7.17699 12.7161 6.48089 12.9567 5.62305 12.9567 5.01499 12.9567 4.37315 12.8512 3.69752 12.6404 3.02394 12.4295 2.30327 12.1091 1.53551 11.6791L1.53551 13.6384C2.31556 13.9517 3.04441 14.1882 3.72209 14.3478 4.4018 14.5075 5.02319 14.5874 5.5862 14.5874 7.07052 14.5874 8.25391 14.2158 9.13631 13.4726 10.0187 12.7315 10.4599 11.7405 10.4599 10.4998 10.4599 9.91021 10.3494 9.35128 10.1283 8.82307 9.9092 8.29691 9.50791 7.67552 8.92441 6.95895 8.76472 6.77263 8.25594 6.23625 7.39811 5.34973 6.54231 4.46322 5.33336 3.22357 3.77122 1.63072Z" transform="matrix(1.00035 0 0 -1 101.675 405.407)"/><g clip-path="url(#clip14)"><path d="M72.5576 283.221 76.8401 282.716 78.9814 282.7 81.1226 282.804 85.4052 282.734 89.6876 282.693 91.8289 282.478 93.9701 282.787 100.394 282.62 102.535 282.963 104.676 282.735 106.818 281.594 108.959 277.973 111.1 273.38 113.242 269.359 115.383 267.539 117.524 266.217 119.665 266.189 121.806 266.903 123.948 266.256 126.089 263.088 128.23 261.952 130.372 260.666 132.513 259.817 134.655 258.817 136.795 257.971 138.936 257.5 143.219 255.738 145.36 253.693 147.502 249.602 149.643 242.6 151.785 233.129 153.926 220.944 156.066 206.936 158.208 194.365 160.349 182.498 162.49 172.421 166.773 154.535 168.914 146.557 171.056 137.248 175.338 120.706 177.479 114.453 179.62 109.279 181.762 104.573 183.903 103.944 186.044 102.716 188.186 103.183 190.327 102.278 192.469 101.933 194.609 101.248 198.892 101.349 201.033 101.755 205.316 101.056 207.457 101.343 211.74 101.398 216.022 101.343 220.304 101.19 222.446 101.387 226.728 101.079 231.011 101.167 233.152 100.747 235.293 100.747 239.576 100.407 241.717 100.52 243.858 100.423 246 100.157 248.141 100.046 250.282 100.072 254.564 99.7824 256.706 99.2173 260.988 99.2399 263.13 99.1191 269.554 98.3122 275.977 99.4335 278.118 100.292 280.26 103.974 282.401 108.505 284.542 116.736 286.684 126.331 288.825 137.13 290.966 149.049 293.107 160.049 295.248 170.238 297.39 184.905 299.531 194.948 301.672 207.511 303.814 217.149 305.955 227.853 308.096 237.008 310.237 244.036 312.378 251.481 314.52 257.931 316.661 260.66 318.802 262.609 320.944 263.496 323.085 263.726 327.368 264.336 331.65 264.255 333.791 263.576 335.932 264.17 338.074 263.396 340.215 263.527 342.356 263.467 344.498 264.399 346.639 263.882 348.779 264.658 350.921 265.797 353.062 267.592 355.204 270.244 357.345 276.713 359.486 282.375 361.628 288.781 363.769 292.559 365.91 292.387 368.052 290.274 370.192 287.462 372.334 285.492 374.475 284.61 376.616 283.979 380.899 284.595 383.04 284.34 387.322 284.422 391.605 284.077 391.605 284.077" stroke="#66CD00" stroke-width="1.96546" stroke-linejoin="round" stroke-dasharray="7.2722 3.14473" fill="none" transform="matrix(1.00035 0 0 1 61 357.184)"/></g><g clip-path="url(#clip15)"><path d="M325.226 264.068 327.368 264.336 329.508 264.331 331.65 264.255 333.791 263.576 335.932 264.17 338.074 263.396 340.215 263.527 342.356 263.467 344.498 264.399 346.639 263.882 348.779 264.658 350.921 265.797 353.062 267.592 355.204 270.244 357.345 276.713 359.486 282.375 361.628 288.781 363.769 292.559 365.91 292.387 368.052 290.274" stroke="#FF0000" stroke-width="5.89638" stroke-linecap="square" stroke-linejoin="round" stroke-opacity="0.8" fill="none" transform="matrix(1.00035 0 0 1 61 357.184)"/></g><path d="M56.6052 302.272 56.6052 40.7557" stroke="#000000" stroke-width="0.786183" stroke-linecap="square" fill="none" transform="matrix(1.00035 0 0 1 61 357.184)"/><path d="M407.557 302.272 407.557 40.7557" stroke="#000000" stroke-width="0.786183" stroke-linecap="square" fill="none" transform="matrix(1.00035 0 0 1 61 357.184)"/><path d="M56.6052 302.272 407.557 302.272" stroke="#000000" stroke-width="0.786183" stroke-linecap="square" fill="none" transform="matrix(1.00035 0 0 1 61 357.184)"/><path d="M56.6052 40.7557 407.557 40.7557" stroke="#000000" stroke-width="0.786183" stroke-linecap="square" fill="none" transform="matrix(1.00035 0 0 1 61 357.184)"/></g></g></g><g clip-path="url(#clip16)"><g clip-path="url(#clip17)"><g clip-path="url(#clip18)"><path d="M0 339.445 452.593 339.445 452.593 0 0 0Z" fill="#FFFFFF" transform="matrix(1 0 0 1.00055 459.407 357.184)"/><path d="M56.5741 302.106 407.334 302.106 407.334 40.7334 56.5741 40.7334Z" fill="#FFFFFF" transform="matrix(1 0 0 1.00055 459.407 357.184)"/><path d="M0 0 0-3.43766" stroke="#000000" stroke-width="0.785752" stroke-linejoin="round" fill="none" transform="matrix(1 0 0 1.00055 531.925 659.456)"/><path d="M6.24304 13.0447C5.24652 13.0447 4.49659 12.5536 3.99321 11.5714 3.4919 10.5913 3.24123 9.11595 3.24123 7.14543 3.24123 5.18311 3.4919 3.71084 3.99321 2.72865 4.49659 1.74646 5.24652 1.25536 6.24304 1.25536 7.24773 1.25536 8.00076 1.74646 8.50208 2.72865 9.00545 3.71084 9.25714 5.18311 9.25714 7.14543 9.25714 9.11595 9.00545 10.5913 8.50208 11.5714 8.00076 12.5536 7.24773 13.0447 6.24304 13.0447ZM6.24304 14.5794C7.84932 14.5794 9.07605 13.944 9.92318 12.6733 10.7703 11.4047 11.1939 9.56202 11.1939 7.14543 11.1939 4.73498 10.7703 2.89439 9.92318 1.62368 9.07605 0.355022 7.84932-0.27931 6.24304-0.27931 4.63879-0.27931 3.41311 0.355022 2.56597 1.62368 1.71883 2.89439 1.29526 4.73498 1.29526 7.14543 1.29526 9.56202 1.71883 11.4047 2.56597 12.6733 3.41311 13.944 4.63879 14.5794 6.24304 14.5794Z" transform="matrix(1 0 0 -1.00055 525.676 677.83)"/><path d="M0 0 0-3.43766" stroke="#000000" stroke-width="0.785752" stroke-linejoin="round" fill="none" transform="matrix(1 0 0 1.00055 638.929 659.456)"/><path d="M2.12092 14.3216 9.72675 14.3216 9.72675 12.6887 3.895 12.6887 3.895 9.1804C4.17532 9.27657 4.45567 9.3482 4.736 9.39526 5.01837 9.44231 5.30075 9.46585 5.58313 9.46585 7.18125 9.46585 8.44683 9.02795 9.37991 8.15217 10.315 7.2764 10.7826 6.09059 10.7826 4.59481 10.7826 3.054 10.3028 1.85593 9.34308 1.00061 8.38339 0.147328 7.03085-0.27931 5.28541-0.27931 4.68382-0.27931 4.07096-0.228154 3.44687-0.125843 2.82482-0.0235316 2.18128 0.129935 1.51626 0.334558L1.51626 2.28359C2.09124 1.97052 2.68567 1.73725 3.29954 1.58378 3.91341 1.43031 4.56206 1.35358 5.24551 1.35358 6.35253 1.35358 7.2283 1.64415 7.87286 2.22527 8.51948 2.8064 8.84278 3.59626 8.84278 4.59481 8.84278 5.59133 8.51948 6.38015 7.87286 6.96127 7.2283 7.54444 6.35253 7.83603 5.24551 7.83603 4.7278 7.83603 4.21114 7.77873 3.69549 7.66415 3.1819 7.54957 2.65703 7.3705 2.12092 7.12701L2.12092 14.3216Z" transform="matrix(1 0 0 -1.00055 626.43 677.83)"/><path d="M6.24304 13.0447C5.24652 13.0447 4.49659 12.5536 3.99321 11.5714 3.4919 10.5913 3.24123 9.11595 3.24123 7.14543 3.24123 5.18311 3.4919 3.71084 3.99321 2.72865 4.49659 1.74646 5.24652 1.25536 6.24304 1.25536 7.24773 1.25536 8.00076 1.74646 8.50208 2.72865 9.00545 3.71084 9.25714 5.18311 9.25714 7.14543 9.25714 9.11595 9.00545 10.5913 8.50208 11.5714 8.00076 12.5536 7.24773 13.0447 6.24304 13.0447ZM6.24304 14.5794C7.84932 14.5794 9.07605 13.944 9.92318 12.6733 10.7703 11.4047 11.1939 9.56202 11.1939 7.14543 11.1939 4.73498 10.7703 2.89439 9.92318 1.62368 9.07605 0.355022 7.84932-0.27931 6.24304-0.27931 4.63879-0.27931 3.41311 0.355022 2.56597 1.62368 1.71883 2.89439 1.29526 4.73498 1.29526 7.14543 1.29526 9.56202 1.71883 11.4047 2.56597 12.6733 3.41311 13.944 4.63879 14.5794 6.24304 14.5794Z" transform="matrix(1 0 0 -1.00055 638.928 677.83)"/><path d="M0 0 0-3.43766" stroke="#000000" stroke-width="0.785752" stroke-linejoin="round" fill="none" transform="matrix(1 0 0 1.00055 745.933 659.456)"/><path d="M2.43706 1.62982 5.60155 1.62982 5.60155 12.5567 2.15775 11.8661 2.15775 13.6309 5.58313 14.3216 7.51989 14.3216 7.51989 1.62982 10.6844 1.62982 10.6844 0 2.43706 0 2.43706 1.62982Z" transform="matrix(1 0 0 -1.00055 727.185 677.83)"/><path d="M6.24304 13.0447C5.24652 13.0447 4.49659 12.5536 3.99321 11.5714 3.4919 10.5913 3.24123 9.11595 3.24123 7.14543 3.24123 5.18311 3.4919 3.71084 3.99321 2.72865 4.49659 1.74646 5.24652 1.25536 6.24304 1.25536 7.24773 1.25536 8.00076 1.74646 8.50208 2.72865 9.00545 3.71084 9.25714 5.18311 9.25714 7.14543 9.25714 9.11595 9.00545 10.5913 8.50208 11.5714 8.00076 12.5536 7.24773 13.0447 6.24304 13.0447ZM6.24304 14.5794C7.84932 14.5794 9.07605 13.944 9.92318 12.6733 10.7703 11.4047 11.1939 9.56202 11.1939 7.14543 11.1939 4.73498 10.7703 2.89439 9.92318 1.62368 9.07605 0.355022 7.84932-0.27931 6.24304-0.27931 4.63879-0.27931 3.41311 0.355022 2.56597 1.62368 1.71883 2.89439 1.29526 4.73498 1.29526 7.14543 1.29526 9.56202 1.71883 11.4047 2.56597 12.6733 3.41311 13.944 4.63879 14.5794 6.24304 14.5794Z" transform="matrix(1 0 0 -1.00055 739.683 677.83)"/><path d="M6.24304 13.0447C5.24652 13.0447 4.49659 12.5536 3.99321 11.5714 3.4919 10.5913 3.24123 9.11595 3.24123 7.14543 3.24123 5.18311 3.4919 3.71084 3.99321 2.72865 4.49659 1.74646 5.24652 1.25536 6.24304 1.25536 7.24773 1.25536 8.00076 1.74646 8.50208 2.72865 9.00545 3.71084 9.25714 5.18311 9.25714 7.14543 9.25714 9.11595 9.00545 10.5913 8.50208 11.5714 8.00076 12.5536 7.24773 13.0447 6.24304 13.0447ZM6.24304 14.5794C7.84932 14.5794 9.07605 13.944 9.92318 12.6733 10.7703 11.4047 11.1939 9.56202 11.1939 7.14543 11.1939 4.73498 10.7703 2.89439 9.92318 1.62368 9.07605 0.355022 7.84932-0.27931 6.24304-0.27931 4.63879-0.27931 3.41311 0.355022 2.56597 1.62368 1.71883 2.89439 1.29526 4.73498 1.29526 7.14543 1.29526 9.56202 1.71883 11.4047 2.56597 12.6733 3.41311 13.944 4.63879 14.5794 6.24304 14.5794Z" transform="matrix(1 0 0 -1.00055 752.181 677.83)"/><path d="M0 0 0-3.43766" stroke="#000000" stroke-width="0.785752" stroke-linejoin="round" fill="none" transform="matrix(1 0 0 1.00055 852.937 659.456)"/><path d="M2.43706 1.62982 5.60155 1.62982 5.60155 12.5567 2.15775 11.8661 2.15775 13.6309 5.58313 14.3216 7.51989 14.3216 7.51989 1.62982 10.6844 1.62982 10.6844 0 2.43706 0 2.43706 1.62982Z" transform="matrix(1 0 0 -1.00055 834.19 677.83)"/><path d="M2.12092 14.3216 9.72675 14.3216 9.72675 12.6887 3.895 12.6887 3.895 9.1804C4.17532 9.27657 4.45567 9.3482 4.736 9.39526 5.01837 9.44231 5.30075 9.46585 5.58313 9.46585 7.18125 9.46585 8.44683 9.02795 9.37991 8.15217 10.315 7.2764 10.7826 6.09059 10.7826 4.59481 10.7826 3.054 10.3028 1.85593 9.34308 1.00061 8.38339 0.147328 7.03085-0.27931 5.28541-0.27931 4.68382-0.27931 4.07096-0.228154 3.44687-0.125843 2.82482-0.0235316 2.18128 0.129935 1.51626 0.334558L1.51626 2.28359C2.09124 1.97052 2.68567 1.73725 3.29954 1.58378 3.91341 1.43031 4.56206 1.35358 5.24551 1.35358 6.35253 1.35358 7.2283 1.64415 7.87286 2.22527 8.51948 2.8064 8.84278 3.59626 8.84278 4.59481 8.84278 5.59133 8.51948 6.38015 7.87286 6.96127 7.2283 7.54444 6.35253 7.83603 5.24551 7.83603 4.7278 7.83603 4.21114 7.77873 3.69549 7.66415 3.1819 7.54957 2.65703 7.3705 2.12092 7.12701L2.12092 14.3216Z" transform="matrix(1 0 0 -1.00055 846.688 677.83)"/><path d="M6.24304 13.0447C5.24652 13.0447 4.49659 12.5536 3.99321 11.5714 3.4919 10.5913 3.24123 9.11595 3.24123 7.14543 3.24123 5.18311 3.4919 3.71084 3.99321 2.72865 4.49659 1.74646 5.24652 1.25536 6.24304 1.25536 7.24773 1.25536 8.00076 1.74646 8.50208 2.72865 9.00545 3.71084 9.25714 5.18311 9.25714 7.14543 9.25714 9.11595 9.00545 10.5913 8.50208 11.5714 8.00076 12.5536 7.24773 13.0447 6.24304 13.0447ZM6.24304 14.5794C7.84932 14.5794 9.07605 13.944 9.92318 12.6733 10.7703 11.4047 11.1939 9.56202 11.1939 7.14543 11.1939 4.73498 10.7703 2.89439 9.92318 1.62368 9.07605 0.355022 7.84932-0.27931 6.24304-0.27931 4.63879-0.27931 3.41311 0.355022 2.56597 1.62368 1.71883 2.89439 1.29526 4.73498 1.29526 7.14543 1.29526 9.56202 1.71883 11.4047 2.56597 12.6733 3.41311 13.944 4.63879 14.5794 6.24304 14.5794Z" transform="matrix(1 0 0 -1.00055 859.186 677.83)"/><path d="M0 0 3.43766 0" stroke="#000000" stroke-width="0.785752" stroke-linejoin="round" fill="none" transform="matrix(1 0 0 1.00055 515.981 659.456)"/><path d="M2.08101 6.97355 14.3768 6.97355 14.3768 5.34373 2.08101 5.34373 2.08101 6.97355Z" transform="matrix(1 0 0 -1.00055 483.584 666.923)"/><path d="M2.43706 1.62982 5.60155 1.62982 5.60155 12.5567 2.15775 11.8661 2.15775 13.6309 5.58313 14.3216 7.51989 14.3216 7.51989 1.62982 10.6844 1.62982 10.6844 0 2.43706 0 2.43706 1.62982Z" transform="matrix(1 0 0 -1.00055 500.044 666.923)"/><path d="M0 0 3.43766 0" stroke="#000000" stroke-width="0.785752" stroke-linejoin="round" fill="none" transform="matrix(1 0 0 1.00055 515.981 574.119)"/><path d="M6.24304 13.0447C5.24652 13.0447 4.49659 12.5536 3.99321 11.5714 3.4919 10.5913 3.24123 9.11595 3.24123 7.14543 3.24123 5.18311 3.4919 3.71084 3.99321 2.72865 4.49659 1.74646 5.24652 1.25536 6.24304 1.25536 7.24773 1.25536 8.00076 1.74646 8.50208 2.72865 9.00545 3.71084 9.25714 5.18311 9.25714 7.14543 9.25714 9.11595 9.00545 10.5913 8.50208 11.5714 8.00076 12.5536 7.24773 13.0447 6.24304 13.0447ZM6.24304 14.5794C7.84932 14.5794 9.07605 13.944 9.92318 12.6733 10.7703 11.4047 11.1939 9.56202 11.1939 7.14543 11.1939 4.73498 10.7703 2.89439 9.92318 1.62368 9.07605 0.355022 7.84932-0.27931 6.24304-0.27931 4.63879-0.27931 3.41311 0.355022 2.56597 1.62368 1.71883 2.89439 1.29526 4.73498 1.29526 7.14543 1.29526 9.56202 1.71883 11.4047 2.56597 12.6733 3.41311 13.944 4.63879 14.5794 6.24304 14.5794Z" transform="matrix(1 0 0 -1.00055 500.045 581.587)"/><path d="M0 0 3.43766 0" stroke="#000000" stroke-width="0.785752" stroke-linejoin="round" fill="none" transform="matrix(1 0 0 1.00055 515.981 488.783)"/><path d="M2.43706 1.62982 5.60155 1.62982 5.60155 12.5567 2.15775 11.8661 2.15775 13.6309 5.58313 14.3216 7.51989 14.3216 7.51989 1.62982 10.6844 1.62982 10.6844 0 2.43706 0 2.43706 1.62982Z" transform="matrix(1 0 0 -1.00055 500.045 496.249)"/><path d="M0 0 3.43766 0" stroke="#000000" stroke-width="0.785752" stroke-linejoin="round" fill="none" transform="matrix(1 0 0 1.00055 515.981 403.445)"/><path d="M3.76915 1.62982 10.5309 1.62982 10.5309 0 1.43952 0 1.43952 1.62982C2.17412 2.39102 3.17576 3.4121 4.44441 4.69302 5.71512 5.97601 6.51314 6.80372 6.8385 7.17612 7.4585 7.87185 7.89128 8.46116 8.13683 8.94406 8.38443 9.42696 8.50822 9.9017 8.50822 10.3682 8.50822 11.1294 8.24119 11.7494 7.70712 12.2283 7.17305 12.7091 6.47733 12.9496 5.61997 12.9496 5.01224 12.9496 4.37074 12.8442 3.69549 12.6334 3.02228 12.4226 2.30201 12.1024 1.53467 11.6727L1.53467 13.6309C2.31428 13.944 3.04274 14.1804 3.72004 14.34 4.39938 14.4996 5.02043 14.5794 5.58313 14.5794 7.06664 14.5794 8.24938 14.208 9.13129 13.4652 10.0132 12.7245 10.4542 11.7341 10.4542 10.4941 10.4542 9.90477 10.3437 9.34615 10.1227 8.81822 9.90376 8.29235 9.50268 7.6713 8.91951 6.95513 8.7599 6.76891 8.25141 6.23282 7.39405 5.34679 6.53871 4.46077 5.33044 3.2218 3.76915 1.62982Z" transform="matrix(1 0 0 -1.00055 500.045 410.913)"/><g clip-path="url(#clip19)"><path d="M72.5177 263.532 74.6578 264.037 91.7785 266.354 93.9185 266.871 102.479 268.174 108.899 269.05 111.039 269.148 113.18 269.643 117.459 269.859 119.599 269.843 121.739 269.698 126.02 269.719 128.16 269.591 130.3 269.315 132.44 269.357 134.581 269.029 136.72 269.266 141 269.18 147.421 269.465 149.561 269.364 151.701 269.413 153.841 269.257 155.981 269.491 158.121 269.548 160.261 269.405 164.541 269.492 166.682 268.122 168.822 262.36 170.962 252.52 173.102 234.866 177.382 191.977 179.522 168.731 181.662 151.802 183.802 138.549 185.942 126.958 190.223 108.307 192.363 98.5107 194.502 88.0175 196.642 78.1391 200.923 62.4247 203.063 55.8973 205.203 55.3689 211.624 54.7807 213.763 53.9272 215.903 53.496 218.043 53.3042 220.183 53.3551 222.324 53.2136 224.464 53.2329 226.604 52.475 228.744 52.4993 233.024 53.8423 235.164 53.8423 239.444 55.5451 241.584 58.3742 243.724 63.3639 245.865 69.3771 248.005 78.4153 250.145 90.168 254.424 116.515 256.565 129.143 258.705 141.038 260.845 150.494 265.125 164.397 267.266 172.306 269.406 179.228 271.545 189.314 273.685 198.425 275.825 209.306 277.966 222.153 280.106 233.721 282.246 246.897 286.526 265.176 288.667 272.55 290.806 278.881 292.946 283.985 295.086 286.493 297.226 287.307 299.367 286.396 301.507 285.26 305.787 283.683 310.066 281.103 314.347 277.995 322.908 276.053 327.188 276.307 329.327 276.128 331.467 276.079 333.608 275.872 337.888 275.685 340.028 275.476 346.449 275.77 348.588 275.622 350.728 275.949 352.868 275.879 355.009 275.974 357.149 276.51 359.289 276.441 361.429 276.644 365.709 276.472 372.129 277.111 374.269 276.924 378.55 276.874 382.83 277.009 384.97 276.848 391.39 277.445 391.39 277.445" stroke="#0000CD" stroke-width="1.96438" stroke-linejoin="round" stroke-dasharray="7.2682 3.14301" fill="none" transform="matrix(1 0 0 1.00055 459.407 357.184)"/></g><g clip-path="url(#clip20)"><path d="M290.806 278.881 292.946 283.985 295.086 286.493 297.226 287.307 299.367 286.396 301.507 285.26 303.647 284.507 305.787 283.683 307.927 282.354 310.066 281.103 312.207 279.554 314.347 277.995 316.487 277.487 318.627 276.924 320.767 276.445 322.908 276.053 325.048 276.193 327.188 276.307 329.327 276.128 331.467 276.079 333.608 275.872 335.748 275.798 337.888 275.685 340.028 275.476 342.168 275.575 344.309 275.692 346.449 275.77 348.588 275.622 350.728 275.949 352.868 275.879 355.009 275.974 357.149 276.51 359.289 276.441 361.429 276.644 363.569 276.574" stroke="#FF0000" stroke-width="5.89314" stroke-linecap="square" stroke-linejoin="round" stroke-opacity="0.8" fill="none" transform="matrix(1 0 0 1.00055 459.407 357.184)"/></g><path d="M56.5741 302.106 56.5741 40.7334" stroke="#000000" stroke-width="0.785752" stroke-linecap="square" fill="none" transform="matrix(1 0 0 1.00055 459.407 357.184)"/><path d="M407.334 302.106 407.334 40.7334" stroke="#000000" stroke-width="0.785752" stroke-linecap="square" fill="none" transform="matrix(1 0 0 1.00055 459.407 357.184)"/><path d="M56.5741 302.106 407.334 302.106" stroke="#000000" stroke-width="0.785752" stroke-linecap="square" fill="none" transform="matrix(1 0 0 1.00055 459.407 357.184)"/><path d="M56.5741 40.7334 407.334 40.7334" stroke="#000000" stroke-width="0.785752" stroke-linecap="square" fill="none" transform="matrix(1 0 0 1.00055 459.407 357.184)"/></g></g></g><text font-family="Calibri,Calibri_MSFontService,sans-serif" font-weight="400" font-size="32" transform="translate(454.864 48)">SAX<tspan font-size="32" x="6.93555" y="327">SFA</tspan></text></g></svg>